# xmcd
#
# Track frame offsets:
#	150
#	13572
#	31252
#	65622
#	78822
#	97215
#	115375
#	128527
#	168937
#	181597
#	196535
#	218572
#	237152
#	262752
#	277590
#	292162
#
# Disc length: 4104 seconds
#
# Revision: 1
# Processed by: cddbd v1.5.1PL0 Copyright (c) Steve Scherf et al.
# Submitted via: CDex 1.50Beta5
#
DISCID=c7100610
DTITLE=Various Artist - 70`s Soul Graffiti
DYEAR=1900
DGENRE=
TTITLE0=スタイティクス/ユー・アー・エヴリシング
TTITLE1=カーティス・メイフィールド/スーパーフライ
TTITLE2=ウィスパーズ/ビート・ゴーズ・オン
TTITLE3=スタイリスティクス/ストップ・ルック・リッスン
TTITLE4=ブルック・ベントン/雨のジョージア
TTITLE5=アヴェレージ・フォワイト・バンド/ピック・アップ・ザ・ピーセス
TTITLE6=ソフトーンズ/好きにならずにいられない
TTITLE7=シャラマ-/アップタウン・フェスティヴァル
TTITLE8=タヴァレス/モア・ザン・ウーマン
TTITLE9=カーティス・メイフィールド/フレディス・あ・ウーマン
TTITLE10=スタイリスティクス/誓い
TTITLE11=アヴェレージ・フォワイト・バンド/カット・ザ・ケイク
TTITLE12=スリー・ディグリーズ/メイビー
TTITLE13=ヴァンマッコイ&ソウル・シティー・シンフォニー/裏切り者のテーマ
TTITLE14=KC.&サンシャインバンド/ザッツ・ザ・ウエイ
TTITLE15=トニー・エルバート/ウー・ベイビー・ベイビー
EXTD=
EXTT0=
EXTT1=
EXTT2=
EXTT3=
EXTT4=
EXTT5=
EXTT6=
EXTT7=
EXTT8=
EXTT9=
EXTT10=
EXTT11=
EXTT12=
EXTT13=
EXTT14=
EXTT15=
PLAYORDER=
